<?xml version="1.0" encoding="UTF-8"?>
<svg version="1.1" xmlns="http://www.w3.org/2000/svg" width="50" height="50">
<path d="M0 0 C5.48286239 2.79776197 8.99653053 6.95311531 12.15625 12.1640625 C12.52878906 12.74800781 12.90132812 13.33195313 13.28515625 13.93359375 C15.73097967 20.19621784 15.24639873 28.91434156 13.12890625 35.2265625 C9.39786124 42.0065224 3.95780097 45.76328702 -2.84375 49.1640625 C-11.6195789 49.97398129 -19.32048009 50.31907368 -26.78515625 45.01953125 C-31.92175712 40.38976766 -35.56361125 35.72582664 -36.1171875 28.6875 C-36.40147404 20.54942888 -36.56423308 13.56837344 -30.84375 7.1640625 C-22.06276629 -0.94027798 -11.62470004 -3.41715084 0 0 Z " fill="#FEFEFE" transform="translate(35.84375,0.8359375)"/>
<path d="M0 0 C4.30169173 1.40272556 4.30169173 1.40272556 5.875 3.9375 C6.41568562 7.56781776 6.33879841 9.25964079 4.25 12.3125 C1.16313568 14.42456506 -0.4532913 14.54945145 -4.125 13.9375 C-7.21384321 11.82408096 -7.99608765 10.62503254 -8.6875 6.9375 C-8.125 3.9375 -8.125 3.9375 -6 1.5 C-3.125 -0.0625 -3.125 -0.0625 0 0 Z " fill="#5D5D5D" transform="translate(26.125,12.0625)"/>
<path d="M0 0 C3.0625 0.1875 3.0625 0.1875 5.0625 2.1875 C4.73278521 5.48464793 4.4398161 6.8101839 2.0625 9.1875 C-1.23464793 8.85778521 -2.5601839 8.5648161 -4.9375 6.1875 C-4.21574268 0.26908996 -4.21574268 0.26908996 0 0 Z " fill="#F4F4F4" transform="translate(24.9375,14.8125)"/>
<path d="M0 0 C3.125 1.25 3.125 1.25 5 3 C5.8125 5.1875 5.8125 5.1875 6 7 C5.01 7 4.02 7 3 7 C2.46375 6.34 1.9275 5.68 1.375 5 C-1.74126477 2.37577704 -3.82309347 2.37622714 -7.8046875 2.52734375 C-11.2529027 3.26975307 -12.90050565 5.29097504 -15 8 C-15.33 7.01 -15.66 6.02 -16 5 C-11.66355643 -0.98130148 -7.07496443 -0.97732241 0 0 Z " fill="#525252" transform="translate(30,28)"/>
<path d="M0 0 C0.66 0.33 1.32 0.66 2 1 C-0.475 4.465 -0.475 4.465 -3 8 C-3.66 7.67 -4.32 7.34 -5 7 C-3.75023244 3.34683329 -3.32901247 2.21934164 0 0 Z " fill="#6F6F6F" transform="translate(19,28)"/>
<path d="M0 0 C1.65 0 3.3 0 5 0 C5.66 1.65 6.32 3.3 7 5 C6.01 5 5.02 5 4 5 C1.8125 2.5 1.8125 2.5 0 0 Z " fill="#707070" transform="translate(29,30)"/>
<path d="M0 0 C0.33 0 0.66 0 1 0 C1.25 2.75 1.25 2.75 1 6 C-1 8.375 -1 8.375 -3 10 C-3.33 9.01 -3.66 8.02 -4 7 C-2.68 6.34 -1.36 5.68 0 5 C0 3.35 0 1.7 0 0 Z " fill="#6A6A6A" transform="translate(31,16)"/>
</svg>
